<svg width="682" height="474" viewBox="0 0 682 474" fill="none" xmlns="http://www.w3.org/2000/svg">
<path d="M16.7102 116.364H14.6136V124.295H14.5114L9.03409 116.364H7.14773V128H9.25568V120.074H9.35227L14.8352 128H16.7102V116.364ZM22.7798 128.17C24.8139 128.17 26.2116 127.176 26.5753 125.659L24.6548 125.443C24.3764 126.182 23.6946 126.568 22.8082 126.568C21.4787 126.568 20.598 125.693 20.581 124.199H26.6605V123.568C26.6605 120.506 24.8196 119.159 22.6719 119.159C20.1719 119.159 18.5412 120.994 18.5412 123.688C18.5412 126.426 20.1491 128.17 22.7798 128.17ZM20.5866 122.812C20.6491 121.699 21.473 120.761 22.7003 120.761C23.8821 120.761 24.6776 121.625 24.6889 122.812H20.5866ZM30.1548 128H32.3026L33.9389 122.102H34.0582L35.6946 128H37.8366L40.3082 119.273H38.206L36.6946 125.375H36.6094L35.0412 119.273H32.9673L31.3991 125.409H31.3196L29.7855 119.273H27.6889L30.1548 128ZM43.8011 116.364H41.7443V128H43.8011V116.364ZM47.1946 131.256C48.7969 131.256 49.723 130.426 50.2173 129.057L53.723 119.284L51.5241 119.273L49.5071 125.864H49.4162L47.4048 119.273H45.223L48.3878 128.182L48.2116 128.653C47.8196 129.619 47.2287 129.693 46.331 129.438L45.8537 131.034C46.1321 131.153 46.6321 131.256 47.1946 131.256ZM7.14773 147H9.25568V142.057H14.0909V140.29H9.25568V137.131H14.6023V135.364H7.14773V147ZM19.598 147.17C22.1548 147.17 23.7798 145.369 23.7798 142.67C23.7798 139.966 22.1548 138.159 19.598 138.159C17.0412 138.159 15.4162 139.966 15.4162 142.67C15.4162 145.369 17.0412 147.17 19.598 147.17ZM19.6094 145.523C18.1946 145.523 17.5014 144.261 17.5014 142.665C17.5014 141.068 18.1946 139.79 19.6094 139.79C21.0014 139.79 21.6946 141.068 21.6946 142.665C21.6946 144.261 21.0014 145.523 19.6094 145.523ZM25.5256 147H27.5824V141.869C27.5824 140.761 28.4176 139.977 29.5483 139.977C29.8949 139.977 30.3267 140.04 30.5028 140.097V138.205C30.3153 138.17 29.9915 138.148 29.7642 138.148C28.7642 138.148 27.929 138.716 27.6108 139.727H27.5199V138.273H25.5256V147ZM31.8693 147H33.9261V141.693C33.9261 140.619 34.642 139.892 35.5284 139.892C36.3977 139.892 36.9943 140.477 36.9943 141.375V147H39.0114V141.557C39.0114 140.574 39.5966 139.892 40.5909 139.892C41.4205 139.892 42.0795 140.381 42.0795 141.46V147H44.142V141.142C44.142 139.193 43.017 138.159 41.4148 138.159C40.1477 138.159 39.1818 138.784 38.7955 139.756H38.7045C38.3693 138.767 37.5227 138.159 36.3466 138.159C35.1761 138.159 34.3011 138.761 33.9375 139.756H33.8352V138.273H31.8693V147ZM50.0923 147.17C52.1264 147.17 53.5241 146.176 53.8878 144.659L51.9673 144.443C51.6889 145.182 51.0071 145.568 50.1207 145.568C48.7912 145.568 47.9105 144.693 47.8935 143.199H53.973V142.568C53.973 139.506 52.1321 138.159 49.9844 138.159C47.4844 138.159 45.8537 139.994 45.8537 142.688C45.8537 145.426 47.4616 147.17 50.0923 147.17ZM47.8991 141.812C47.9616 140.699 48.7855 139.761 50.0128 139.761C51.1946 139.761 51.9901 140.625 52.0014 141.812H47.8991ZM58.9517 147.153C60.4517 147.153 61.1278 146.261 61.4517 145.625H61.5767V147H63.5994V135.364H61.5369V139.716H61.4517C61.1392 139.085 60.4972 138.159 58.9574 138.159C56.9403 138.159 55.3551 139.739 55.3551 142.648C55.3551 145.523 56.8949 147.153 58.9517 147.153ZM59.5256 145.466C58.1676 145.466 57.4517 144.273 57.4517 142.636C57.4517 141.011 58.1562 139.847 59.5256 139.847C60.8494 139.847 61.5767 140.943 61.5767 142.636C61.5767 144.33 60.8381 145.466 59.5256 145.466ZM6.63636 156.131H10.233V166H12.3239V156.131H15.9205V154.364H6.63636V156.131ZM20.2173 166.17C22.2514 166.17 23.6491 165.176 24.0128 163.659L22.0923 163.443C21.8139 164.182 21.1321 164.568 20.2457 164.568C18.9162 164.568 18.0355 163.693 18.0185 162.199H24.098V161.568C24.098 158.506 22.2571 157.159 20.1094 157.159C17.6094 157.159 15.9787 158.994 15.9787 161.688C15.9787 164.426 17.5866 166.17 20.2173 166.17ZM18.0241 160.812C18.0866 159.699 18.9105 158.761 20.1378 158.761C21.3196 158.761 22.1151 159.625 22.1264 160.812H18.0241ZM28.3494 166.176C29.7188 166.176 30.5369 165.534 30.9119 164.801H30.9801V166H32.9574V160.159C32.9574 157.852 31.0767 157.159 29.4119 157.159C27.5767 157.159 26.1676 157.977 25.7131 159.568L27.6335 159.841C27.8381 159.244 28.4176 158.733 29.4233 158.733C30.3778 158.733 30.9006 159.222 30.9006 160.08V160.114C30.9006 160.705 30.2812 160.733 28.7415 160.898C27.0483 161.08 25.429 161.585 25.429 163.551C25.429 165.267 26.6847 166.176 28.3494 166.176ZM28.8835 164.665C28.0256 164.665 27.4119 164.273 27.4119 163.517C27.4119 162.727 28.0994 162.398 29.0199 162.267C29.5597 162.193 30.6392 162.057 30.9062 161.841V162.869C30.9062 163.841 30.1222 164.665 28.8835 164.665ZM35.0256 166H37.0824V160.693C37.0824 159.619 37.7983 158.892 38.6847 158.892C39.554 158.892 40.1506 159.477 40.1506 160.375V166H42.1676V160.557C42.1676 159.574 42.7528 158.892 43.7472 158.892C44.5767 158.892 45.2358 159.381 45.2358 160.46V166H47.2983V160.142C47.2983 158.193 46.1733 157.159 44.571 157.159C43.304 157.159 42.3381 157.784 41.9517 158.756H41.8608C41.5256 157.767 40.679 157.159 39.5028 157.159C38.3324 157.159 37.4574 157.761 37.0938 158.756H36.9915V157.273H35.0256V166ZM56.2827 159.58C55.9986 158.102 54.8168 157.159 52.7713 157.159C50.669 157.159 49.2372 158.193 49.2429 159.807C49.2372 161.08 50.0213 161.92 51.6974 162.267L53.1861 162.58C53.9872 162.756 54.3622 163.08 54.3622 163.574C54.3622 164.17 53.7145 164.619 52.7372 164.619C51.794 164.619 51.1804 164.21 51.0043 163.426L48.9986 163.619C49.2543 165.222 50.6009 166.17 52.7429 166.17C54.9247 166.17 56.4645 165.04 56.4702 163.386C56.4645 162.142 55.6634 161.381 54.0156 161.023L52.527 160.705C51.6406 160.506 51.2884 160.199 51.294 159.693C51.2884 159.102 51.9418 158.693 52.7997 158.693C53.7486 158.693 54.2486 159.21 54.4077 159.784L56.2827 159.58Z" fill="#0054C1"/>
<path d="M7.47159 335.562H9.5C9.46023 333.597 7.78409 332.205 5.30682 332.205C2.86364 332.205 1.02841 333.58 1.03409 335.636C1.03409 337.307 2.22159 338.267 4.13636 338.761L5.46023 339.102C6.71591 339.42 7.54545 339.812 7.55114 340.716C7.54545 341.71 6.60227 342.375 5.22727 342.375C3.90909 342.375 2.88636 341.784 2.80114 340.562H0.727273C0.8125 342.875 2.53409 344.176 5.24432 344.176C8.03409 344.176 9.65341 342.784 9.65909 340.733C9.65341 338.716 7.98864 337.795 6.23864 337.381L5.14773 337.108C4.19318 336.881 3.15909 336.477 3.17045 335.506C3.17614 334.631 3.96023 333.989 5.27841 333.989C6.53409 333.989 7.36364 334.574 7.47159 335.562ZM15.8054 335.273H14.0838V333.182H12.027V335.273H10.7884V336.864H12.027V341.716C12.0156 343.358 13.2088 344.165 14.7543 344.119C15.3395 344.102 15.7429 343.989 15.9645 343.915L15.6179 342.307C15.5043 342.335 15.2713 342.386 15.0156 342.386C14.4986 342.386 14.0838 342.205 14.0838 341.375V336.864H15.8054V335.273ZM17.5256 344H19.5824V338.869C19.5824 337.761 20.4176 336.977 21.5483 336.977C21.8949 336.977 22.3267 337.04 22.5028 337.097V335.205C22.3153 335.17 21.9915 335.148 21.7642 335.148C20.7642 335.148 19.929 335.716 19.6108 336.727H19.5199V335.273H17.5256V344ZM27.3168 344.17C29.8736 344.17 31.4986 342.369 31.4986 339.67C31.4986 336.966 29.8736 335.159 27.3168 335.159C24.7599 335.159 23.1349 336.966 23.1349 339.67C23.1349 342.369 24.7599 344.17 27.3168 344.17ZM27.3281 342.523C25.9134 342.523 25.2202 341.261 25.2202 339.665C25.2202 338.068 25.9134 336.79 27.3281 336.79C28.7202 336.79 29.4134 338.068 29.4134 339.665C29.4134 341.261 28.7202 342.523 27.3281 342.523ZM35.3011 338.886C35.3011 337.625 36.0625 336.898 37.1477 336.898C38.2102 336.898 38.8466 337.597 38.8466 338.761V344H40.9034V338.443C40.9091 336.352 39.7159 335.159 37.9148 335.159C36.608 335.159 35.7102 335.784 35.3125 336.756H35.2102V335.273H33.2443V344H35.3011V338.886ZM46.7898 347.42C49.1477 347.42 50.8864 346.341 50.8864 344.142V335.273H48.858V336.716H48.7443C48.4318 336.085 47.7784 335.159 46.2386 335.159C44.2216 335.159 42.6364 336.739 42.6364 339.608C42.6364 342.455 44.2216 343.875 46.233 343.875C47.7273 343.875 48.4261 343.074 48.7443 342.432H48.8466V344.085C48.8466 345.335 47.9943 345.864 46.8239 345.864C45.5852 345.864 45.0398 345.278 44.7898 344.801L42.9375 345.25C43.3125 346.438 44.5682 347.42 46.7898 347.42ZM46.8068 342.261C45.4489 342.261 44.733 341.205 44.733 339.597C44.733 338.011 45.4375 336.847 46.8068 336.847C48.1307 336.847 48.858 337.943 48.858 339.597C48.858 341.261 48.1193 342.261 46.8068 342.261ZM60.4403 344.17C61.4688 344.17 62.6108 343.852 63.4233 343.148L64.1676 344H66.3949L64.6903 342.006C65.2585 341.244 65.7017 340.114 65.7017 338.517H63.9347C63.9347 339.284 63.7528 339.972 63.446 340.545L61.321 338.057L62.054 337.517C63.0256 336.812 63.5994 335.966 63.5994 334.864C63.5994 333.443 62.4801 332.222 60.6449 332.222C58.804 332.222 57.5938 333.443 57.5938 335.097C57.5938 336.136 58.1165 336.983 58.7869 337.812C57.4915 338.705 56.6051 339.54 56.6051 340.909C56.6051 342.761 58.0597 344.17 60.4403 344.17ZM62.304 341.864C61.7528 342.261 61.1222 342.477 60.5028 342.477C59.3608 342.477 58.6222 341.739 58.6222 340.818C58.6222 340.415 58.929 339.807 59.7017 339.239L59.8892 339.102L62.304 341.864ZM60.2699 336.801C59.7812 336.199 59.429 335.659 59.429 335.125C59.429 334.494 59.929 333.909 60.6733 333.909C61.4062 333.909 61.8551 334.455 61.8551 334.955C61.8551 335.545 61.5369 335.96 60.929 336.352L60.2699 336.801ZM77.956 335.562H79.9844C79.9446 333.597 78.2685 332.205 75.7912 332.205C73.348 332.205 71.5128 333.58 71.5185 335.636C71.5185 337.307 72.706 338.267 74.6207 338.761L75.9446 339.102C77.2003 339.42 78.0298 339.812 78.0355 340.716C78.0298 341.71 77.0866 342.375 75.7116 342.375C74.3935 342.375 73.3707 341.784 73.2855 340.562H71.2116C71.2969 342.875 73.0185 344.176 75.7287 344.176C78.5185 344.176 80.1378 342.784 80.1435 340.733C80.1378 338.716 78.473 337.795 76.723 337.381L75.6321 337.108C74.6776 336.881 73.6435 336.477 73.6548 335.506C73.6605 334.631 74.4446 333.989 75.7628 333.989C77.0185 333.989 77.848 334.574 77.956 335.562ZM86.2898 335.273H84.5682V333.182H82.5114V335.273H81.2727V336.864H82.5114V341.716C82.5 343.358 83.6932 344.165 85.2386 344.119C85.8239 344.102 86.2273 343.989 86.4489 343.915L86.1023 342.307C85.9886 342.335 85.7557 342.386 85.5 342.386C84.983 342.386 84.5682 342.205 84.5682 341.375V336.864H86.2898V335.273ZM91.7798 344.17C93.8139 344.17 95.2116 343.176 95.5753 341.659L93.6548 341.443C93.3764 342.182 92.6946 342.568 91.8082 342.568C90.4787 342.568 89.598 341.693 89.581 340.199H95.6605V339.568C95.6605 336.506 93.8196 335.159 91.6719 335.159C89.1719 335.159 87.5412 336.994 87.5412 339.688C87.5412 342.426 89.1491 344.17 91.7798 344.17ZM89.5866 338.812C89.6491 337.699 90.473 336.761 91.7003 336.761C92.8821 336.761 93.6776 337.625 93.6889 338.812H89.5866ZM99.9119 344.176C101.281 344.176 102.099 343.534 102.474 342.801H102.543V344H104.52V338.159C104.52 335.852 102.639 335.159 100.974 335.159C99.1392 335.159 97.7301 335.977 97.2756 337.568L99.196 337.841C99.4006 337.244 99.9801 336.733 100.986 336.733C101.94 336.733 102.463 337.222 102.463 338.08V338.114C102.463 338.705 101.844 338.733 100.304 338.898C98.6108 339.08 96.9915 339.585 96.9915 341.551C96.9915 343.267 98.2472 344.176 99.9119 344.176ZM100.446 342.665C99.5881 342.665 98.9744 342.273 98.9744 341.517C98.9744 340.727 99.6619 340.398 100.582 340.267C101.122 340.193 102.202 340.057 102.469 339.841V340.869C102.469 341.841 101.685 342.665 100.446 342.665ZM109.827 344.153C111.327 344.153 112.003 343.261 112.327 342.625H112.452V344H114.474V332.364H112.412V336.716H112.327C112.014 336.085 111.372 335.159 109.832 335.159C107.815 335.159 106.23 336.739 106.23 339.648C106.23 342.523 107.77 344.153 109.827 344.153ZM110.401 342.466C109.043 342.466 108.327 341.273 108.327 339.636C108.327 338.011 109.031 336.847 110.401 336.847C111.724 336.847 112.452 337.943 112.452 339.636C112.452 341.33 111.713 342.466 110.401 342.466ZM117.945 347.256C119.547 347.256 120.473 346.426 120.967 345.057L124.473 335.284L122.274 335.273L120.257 341.864H120.166L118.155 335.273H115.973L119.138 344.182L118.962 344.653C118.57 345.619 117.979 345.693 117.081 345.438L116.604 347.034C116.882 347.153 117.382 347.256 117.945 347.256ZM0.636364 353.131H4.23295V363H6.32386V353.131H9.92045V351.364H0.636364V353.131ZM14.2173 363.17C16.2514 363.17 17.6491 362.176 18.0128 360.659L16.0923 360.443C15.8139 361.182 15.1321 361.568 14.2457 361.568C12.9162 361.568 12.0355 360.693 12.0185 359.199H18.098V358.568C18.098 355.506 16.2571 354.159 14.1094 354.159C11.6094 354.159 9.97869 355.994 9.97869 358.688C9.97869 361.426 11.5866 363.17 14.2173 363.17ZM12.0241 357.812C12.0866 356.699 12.9105 355.761 14.1378 355.761C15.3196 355.761 16.1151 356.625 16.1264 357.812H12.0241ZM22.3494 363.176C23.7188 363.176 24.5369 362.534 24.9119 361.801H24.9801V363H26.9574V357.159C26.9574 354.852 25.0767 354.159 23.4119 354.159C21.5767 354.159 20.1676 354.977 19.7131 356.568L21.6335 356.841C21.8381 356.244 22.4176 355.733 23.4233 355.733C24.3778 355.733 24.9006 356.222 24.9006 357.08V357.114C24.9006 357.705 24.2812 357.733 22.7415 357.898C21.0483 358.08 19.429 358.585 19.429 360.551C19.429 362.267 20.6847 363.176 22.3494 363.176ZM22.8835 361.665C22.0256 361.665 21.4119 361.273 21.4119 360.517C21.4119 359.727 22.0994 359.398 23.0199 359.267C23.5597 359.193 24.6392 359.057 24.9062 358.841V359.869C24.9062 360.841 24.1222 361.665 22.8835 361.665ZM29.0256 363H31.0824V357.693C31.0824 356.619 31.7983 355.892 32.6847 355.892C33.554 355.892 34.1506 356.477 34.1506 357.375V363H36.1676V357.557C36.1676 356.574 36.7528 355.892 37.7472 355.892C38.5767 355.892 39.2358 356.381 39.2358 357.46V363H41.2983V357.142C41.2983 355.193 40.1733 354.159 38.571 354.159C37.304 354.159 36.3381 354.784 35.9517 355.756H35.8608C35.5256 354.767 34.679 354.159 33.5028 354.159C32.3324 354.159 31.4574 354.761 31.0938 355.756H30.9915V354.273H29.0256V363ZM50.2827 356.58C49.9986 355.102 48.8168 354.159 46.7713 354.159C44.669 354.159 43.2372 355.193 43.2429 356.807C43.2372 358.08 44.0213 358.92 45.6974 359.267L47.1861 359.58C47.9872 359.756 48.3622 360.08 48.3622 360.574C48.3622 361.17 47.7145 361.619 46.7372 361.619C45.794 361.619 45.1804 361.21 45.0043 360.426L42.9986 360.619C43.2543 362.222 44.6009 363.17 46.7429 363.17C48.9247 363.17 50.4645 362.04 50.4702 360.386C50.4645 359.142 49.6634 358.381 48.0156 358.023L46.527 357.705C45.6406 357.506 45.2884 357.199 45.294 356.693C45.2884 356.102 45.9418 355.693 46.7997 355.693C47.7486 355.693 48.2486 356.21 48.4077 356.784L50.2827 356.58Z" fill="#0054C1"/>
<path d="M604.71 92.3636H602.614V100.295H602.511L597.034 92.3636H595.148V104H597.256V96.0739H597.352L602.835 104H604.71V92.3636ZM610.78 104.17C612.814 104.17 614.212 103.176 614.575 101.659L612.655 101.443C612.376 102.182 611.695 102.568 610.808 102.568C609.479 102.568 608.598 101.693 608.581 100.199H614.661V99.5682C614.661 96.5057 612.82 95.1591 610.672 95.1591C608.172 95.1591 606.541 96.9943 606.541 99.6875C606.541 102.426 608.149 104.17 610.78 104.17ZM608.587 98.8125C608.649 97.6989 609.473 96.7614 610.7 96.7614C611.882 96.7614 612.678 97.625 612.689 98.8125H608.587ZM618.155 104H620.303L621.939 98.1023H622.058L623.695 104H625.837L628.308 95.2727H626.206L624.695 101.375H624.609L623.041 95.2727H620.967L619.399 101.409H619.32L617.786 95.2727H615.689L618.155 104ZM637.52 104.17C640.077 104.17 641.702 102.369 641.702 99.6705C641.702 96.9659 640.077 95.1591 637.52 95.1591C634.963 95.1591 633.338 96.9659 633.338 99.6705C633.338 102.369 634.963 104.17 637.52 104.17ZM637.531 102.523C636.116 102.523 635.423 101.261 635.423 99.6648C635.423 98.0682 636.116 96.7898 637.531 96.7898C638.923 96.7898 639.616 98.0682 639.616 99.6648C639.616 101.261 638.923 102.523 637.531 102.523ZM643.447 104H645.504V98.8693C645.504 97.7614 646.339 96.9773 647.47 96.9773C647.817 96.9773 648.249 97.0398 648.425 97.0966V95.2045C648.237 95.1705 647.913 95.1477 647.686 95.1477C646.686 95.1477 645.851 95.7159 645.533 96.7273H645.442V95.2727H643.447V104ZM605.108 115.29C604.75 112.705 602.761 111.205 600.182 111.205C597.142 111.205 594.852 113.42 594.852 117.182C594.852 120.938 597.114 123.159 600.182 123.159C602.949 123.159 604.784 121.369 605.108 119.148L602.983 119.136C602.716 120.5 601.602 121.267 600.21 121.267C598.324 121.267 596.972 119.852 596.972 117.182C596.972 114.557 598.312 113.097 600.216 113.097C601.631 113.097 602.739 113.898 602.983 115.29H605.108ZM609.004 117.886C609.004 116.625 609.788 115.898 610.891 115.898C611.97 115.898 612.607 116.585 612.607 117.761V123H614.663V117.443C614.663 115.335 613.47 114.159 611.658 114.159C610.317 114.159 609.464 114.767 609.061 115.756H608.959V111.364H606.947V123H609.004V117.886ZM619.271 123.176C620.641 123.176 621.459 122.534 621.834 121.801H621.902V123H623.879V117.159C623.879 114.852 621.999 114.159 620.334 114.159C618.499 114.159 617.089 114.977 616.635 116.568L618.555 116.841C618.76 116.244 619.339 115.733 620.345 115.733C621.3 115.733 621.822 116.222 621.822 117.08V117.114C621.822 117.705 621.203 117.733 619.663 117.898C617.97 118.08 616.351 118.585 616.351 120.551C616.351 122.267 617.607 123.176 619.271 123.176ZM619.805 121.665C618.947 121.665 618.334 121.273 618.334 120.517C618.334 119.727 619.021 119.398 619.942 119.267C620.482 119.193 621.561 119.057 621.828 118.841V119.869C621.828 120.841 621.044 121.665 619.805 121.665ZM628.004 117.886C628.004 116.625 628.766 115.898 629.851 115.898C630.913 115.898 631.55 116.597 631.55 117.761V123H633.607V117.443C633.612 115.352 632.419 114.159 630.618 114.159C629.311 114.159 628.413 114.784 628.016 115.756H627.913V114.273H625.947V123H628.004V117.886ZM639.493 126.42C641.851 126.42 643.589 125.341 643.589 123.142V114.273H641.561V115.716H641.447C641.135 115.085 640.482 114.159 638.942 114.159C636.925 114.159 635.339 115.739 635.339 118.608C635.339 121.455 636.925 122.875 638.936 122.875C640.43 122.875 641.129 122.074 641.447 121.432H641.55V123.085C641.55 124.335 640.697 124.864 639.527 124.864C638.288 124.864 637.743 124.278 637.493 123.801L635.641 124.25C636.016 125.438 637.271 126.42 639.493 126.42ZM639.51 121.261C638.152 121.261 637.436 120.205 637.436 118.597C637.436 117.011 638.141 115.847 639.51 115.847C640.834 115.847 641.561 116.943 641.561 118.597C641.561 120.261 640.822 121.261 639.51 121.261ZM645.697 123H647.754V114.273H645.697V123ZM646.732 113.034C647.385 113.034 647.919 112.534 647.919 111.92C647.919 111.301 647.385 110.801 646.732 110.801C646.072 110.801 645.538 111.301 645.538 111.92C645.538 112.534 646.072 113.034 646.732 113.034ZM651.926 117.886C651.926 116.625 652.688 115.898 653.773 115.898C654.835 115.898 655.472 116.597 655.472 117.761V123H657.528V117.443C657.534 115.352 656.341 114.159 654.54 114.159C653.233 114.159 652.335 114.784 651.938 115.756H651.835V114.273H649.869V123H651.926V117.886ZM663.415 126.42C665.773 126.42 667.511 125.341 667.511 123.142V114.273H665.483V115.716H665.369C665.057 115.085 664.403 114.159 662.864 114.159C660.847 114.159 659.261 115.739 659.261 118.608C659.261 121.455 660.847 122.875 662.858 122.875C664.352 122.875 665.051 122.074 665.369 121.432H665.472V123.085C665.472 124.335 664.619 124.864 663.449 124.864C662.21 124.864 661.665 124.278 661.415 123.801L659.562 124.25C659.938 125.438 661.193 126.42 663.415 126.42ZM663.432 121.261C662.074 121.261 661.358 120.205 661.358 118.597C661.358 117.011 662.062 115.847 663.432 115.847C664.756 115.847 665.483 116.943 665.483 118.597C665.483 120.261 664.744 121.261 663.432 121.261ZM595.148 130.364V142H597.17V133.989H597.278L600.494 141.966H602.006L605.222 134.006H605.33V142H607.352V130.364H604.773L601.318 138.795H601.182L597.727 130.364H595.148ZM613.42 142.17C615.455 142.17 616.852 141.176 617.216 139.659L615.295 139.443C615.017 140.182 614.335 140.568 613.449 140.568C612.119 140.568 611.239 139.693 611.222 138.199H617.301V137.568C617.301 134.506 615.46 133.159 613.312 133.159C610.812 133.159 609.182 134.994 609.182 137.688C609.182 140.426 610.79 142.17 613.42 142.17ZM611.227 136.812C611.29 135.699 612.114 134.761 613.341 134.761C614.523 134.761 615.318 135.625 615.33 136.812H611.227ZM619.041 142H621.098V136.693C621.098 135.619 621.814 134.892 622.7 134.892C623.57 134.892 624.166 135.477 624.166 136.375V142H626.183V136.557C626.183 135.574 626.768 134.892 627.763 134.892C628.592 134.892 629.251 135.381 629.251 136.46V142H631.314V136.142C631.314 134.193 630.189 133.159 628.587 133.159C627.32 133.159 626.354 133.784 625.967 134.756H625.876C625.541 133.767 624.695 133.159 623.518 133.159C622.348 133.159 621.473 133.761 621.109 134.756H621.007V133.273H619.041V142ZM633.491 142H635.514V140.625H635.634C635.957 141.261 636.634 142.153 638.134 142.153C640.19 142.153 641.73 140.523 641.73 137.648C641.73 134.739 640.145 133.159 638.128 133.159C636.588 133.159 635.946 134.085 635.634 134.716H635.548V130.364H633.491V142ZM635.509 137.636C635.509 135.943 636.236 134.847 637.56 134.847C638.929 134.847 639.634 136.011 639.634 137.636C639.634 139.273 638.918 140.466 637.56 140.466C636.247 140.466 635.509 139.33 635.509 137.636ZM647.342 142.17C649.376 142.17 650.774 141.176 651.138 139.659L649.217 139.443C648.939 140.182 648.257 140.568 647.371 140.568C646.041 140.568 645.161 139.693 645.143 138.199H651.223V137.568C651.223 134.506 649.382 133.159 647.234 133.159C644.734 133.159 643.104 134.994 643.104 137.688C643.104 140.426 644.712 142.17 647.342 142.17ZM645.149 136.812C645.212 135.699 646.036 134.761 647.263 134.761C648.445 134.761 649.24 135.625 649.251 136.812H645.149ZM652.963 142H655.02V136.869C655.02 135.761 655.855 134.977 656.986 134.977C657.332 134.977 657.764 135.04 657.94 135.097V133.205C657.753 133.17 657.429 133.148 657.202 133.148C656.202 133.148 655.366 133.716 655.048 134.727H654.957V133.273H652.963V142ZM666.205 135.58C665.92 134.102 664.739 133.159 662.693 133.159C660.591 133.159 659.159 134.193 659.165 135.807C659.159 137.08 659.943 137.92 661.619 138.267L663.108 138.58C663.909 138.756 664.284 139.08 664.284 139.574C664.284 140.17 663.636 140.619 662.659 140.619C661.716 140.619 661.102 140.21 660.926 139.426L658.92 139.619C659.176 141.222 660.523 142.17 662.665 142.17C664.847 142.17 666.386 141.04 666.392 139.386C666.386 138.142 665.585 137.381 663.938 137.023L662.449 136.705C661.562 136.506 661.21 136.199 661.216 135.693C661.21 135.102 661.864 134.693 662.722 134.693C663.67 134.693 664.17 135.21 664.33 135.784L666.205 135.58Z" fill="#0054C1"/>
<path opacity="0.7" d="M178.899 90.9975C180.002 91.0536 180.942 90.2048 180.998 89.1016L181.912 71.1249C181.968 70.0217 181.119 69.082 180.016 69.0259C178.913 68.9698 177.973 69.8186 177.917 70.9217L177.104 86.9011L161.125 86.0886C160.022 86.0325 159.082 86.8813 159.026 87.9845C158.97 89.0876 159.819 90.0274 160.922 90.0835L178.899 90.9975ZM41.9446 103.466C47.7487 79.2826 67.8432 60.8275 93.3742 55.9646C118.84 51.114 149.913 59.7802 177.516 90.3406L180.484 87.6595C152.087 56.2199 119.66 46.886 92.6257 52.0352C65.6565 57.1721 44.2509 76.7169 38.055 102.533L41.9446 103.466Z" fill="#0067F2"/>
<path opacity="0.7" d="M481.495 82.8203C480.399 82.9571 479.4 82.1795 479.263 81.0834L477.034 63.222C476.897 62.1259 477.675 61.1265 478.771 60.9897C479.867 60.8529 480.866 61.6305 481.003 62.7266L482.984 78.6034L498.861 76.6219C499.957 76.4852 500.957 77.2628 501.094 78.3589C501.23 79.4549 500.453 80.4544 499.357 80.5912L481.495 82.8203ZM603.525 76.1453C601.338 63.7541 595.621 54.3168 587.65 47.9782C579.668 41.6306 569.302 38.2938 557.674 38.3393C534.4 38.4305 506.135 52.1068 482.826 82.0639L479.669 79.6075C503.536 48.9335 532.867 34.4365 557.658 34.3394C570.063 34.2908 581.348 37.856 590.14 44.8475C598.943 51.8481 605.123 62.187 607.465 75.45L603.525 76.1453Z" fill="#0067F2"/>
<path opacity="0.7" d="M201.509 417.065C202.578 417.346 203.216 418.44 202.935 419.508L198.354 436.916C198.073 437.984 196.979 438.622 195.911 438.341C194.842 438.06 194.204 436.966 194.485 435.898L198.557 420.424L183.084 416.353C182.016 416.071 181.378 414.978 181.659 413.909C181.94 412.841 183.034 412.203 184.102 412.484L201.509 417.065ZM63.5005 373C63.5004 398.644 85.2354 416.665 113.8 424.827C142.285 432.965 176.571 430.934 199.993 417.272L202.008 420.727C177.43 435.064 141.966 437.034 112.701 428.673C83.5155 420.334 59.5004 401.356 59.5005 373L63.5005 373Z" fill="#0067F2"/>
<path opacity="0.8" fill-rule="evenodd" clip-rule="evenodd" d="M331.719 111.844C367.636 118.38 380.751 162.465 409.203 185.31C435.497 206.421 474.18 211.013 491.352 240.015C510.367 272.129 514.78 312.073 505.683 348.258C496.213 385.933 474.747 422.832 440.682 441.581C408.067 459.533 367.951 452.61 331.719 444.008C301.836 436.913 277.223 418.484 254.854 397.463C235.04 378.842 220.376 356.5 211.332 330.874C202.081 304.661 199.818 277.615 202.806 249.982C206.519 215.651 207.014 178.069 230.588 152.807C256.012 125.564 295.033 105.168 331.719 111.844Z" fill="#E5F0FD"/>
<mask id="mask0" mask-type="alpha" maskUnits="userSpaceOnUse" x="128" y="37" width="467" height="416">
<path d="M595 37H128V323.277H208.852C209.615 325.817 210.441 328.35 211.332 330.874C220.376 356.5 235.04 378.842 254.854 397.463C277.223 418.484 301.837 436.914 331.72 444.008C367.951 452.61 408.067 459.533 440.683 441.581C474.748 422.832 496.213 385.933 505.684 348.259C507.74 340.079 509.106 331.707 509.769 323.277H595V37Z" fill="#C4C4C4"/>
</mask>
<g mask="url(#mask0)">
<g clip-path="url(#clip0)">
<path d="M549.764 268.263C548.812 268.507 547.931 268.973 547.194 269.623C546.457 270.273 545.884 271.089 545.522 272.003L544.832 271.893L542.255 271.478C542.255 271.478 528.606 270.351 526.057 270.524C523.508 270.697 521.913 268.18 521.913 268.18L511.766 259.588L510.978 258.896C512.077 258.481 512.76 258.267 512.76 258.267C512.76 258.267 485.531 224.393 479.66 223.737C473.789 223.08 464.084 215.171 463.987 215.095L463.883 214.556C463.669 213.416 463.51 212.261 463.393 211.1L464.836 211.985C464.836 211.584 464.836 211.183 464.878 210.782C465.093 206.601 466.503 202.57 468.939 199.168C471.778 195.227 475.978 192.13 477.657 187.589C478.326 185.635 478.628 183.575 478.548 181.512C478.591 177.795 477.611 174.139 475.716 170.942C474.75 169.344 473.456 167.97 471.92 166.909C470.384 165.848 468.641 165.126 466.805 164.79C465.838 164.637 464.85 164.617 463.897 164.395C458.226 163.061 456.14 155.45 450.628 153.584C448.058 152.712 445.199 153.286 442.719 154.365C440.239 155.443 437.994 156.992 435.57 158.188C433.145 159.384 430.396 160.261 428.192 161.955C427.964 162.128 427.723 162.335 427.502 162.55L427.066 162.971C426.157 163.895 425.366 164.929 424.711 166.048L424.607 166.22C424.538 166.338 424.476 166.462 424.414 166.587C424.352 166.711 424.31 166.78 424.269 166.877C424.228 166.974 424.158 167.098 424.11 167.209L423.965 167.541L423.841 167.859C423.799 167.976 423.751 168.094 423.716 168.218C423.682 168.343 423.647 168.419 423.62 168.523L423.516 168.889L423.454 169.186C423.454 169.311 423.405 169.442 423.385 169.566C423.364 169.691 423.385 169.753 423.385 169.843C423.385 169.933 423.385 170.106 423.385 170.237C423.385 170.368 423.385 170.41 423.385 170.493C423.385 170.576 423.385 170.769 423.385 170.914C423.385 171.06 423.385 171.053 423.385 171.122C423.412 171.325 423.453 171.526 423.509 171.723C423.882 172.995 425.167 174.295 426.148 175.429C426.037 175.532 425.927 175.629 425.816 175.74C423.485 177.988 421.63 180.685 420.364 183.667C419.097 186.65 418.445 189.858 418.446 193.098C418.447 194.538 418.579 195.975 418.84 197.391C417.584 196.442 416.235 195.624 414.813 194.951C410.135 192.706 405.018 191.526 399.83 191.494C391.369 191.398 379.481 188.218 379.481 188.218C379.785 188.798 380.016 189.413 380.172 190.05C379.654 189.752 379.094 189.434 378.479 189.103C373.524 186.44 368.151 184.64 362.592 183.78C362.592 183.78 359.069 184.27 358.6 176.867C358.438 174.553 358.021 172.265 357.356 170.043C355.334 163.272 353.933 156.33 353.171 149.304L351.989 138.437C351.989 138.437 357.308 110.094 354.11 98.0099C355.139 94.2215 354.559 90.7512 351.167 88.2556C337.788 78.3977 324.29 116.765 324.29 116.765L319.276 121.639C317.989 120.799 316.538 120.246 315.021 120.014C315.021 120.014 312.32 122.779 310.441 130.328C309.446 134.331 302.649 141.016 296.502 146.401C292.136 150.224 287.923 154.199 283.716 158.188C280.608 161.146 273.68 165.377 258.566 167.769C256.197 168.142 254.042 168.495 252.073 168.82C252.576 167.034 252.832 165.187 252.833 163.331C252.809 158.66 251.199 154.135 248.267 150.501C245.335 146.867 241.255 144.339 236.697 143.332C236.766 142.848 236.766 142.357 236.697 141.873C236.442 140.832 235.915 139.878 235.17 139.108C231.986 135.167 228.532 131.116 223.794 129.25C221.84 128.489 219.747 128.152 217.653 128.261H216.603C216.389 128.261 216.182 128.261 215.968 128.261C213.734 128.385 211.551 128.984 209.567 130.019C207.583 131.054 205.841 132.5 204.46 134.262C202.761 136.536 201.738 139.232 200.274 141.659C197.552 146.152 193.367 149.615 188.828 152.353C186.1 154.005 183.233 155.429 180.657 157.303C171.311 164.098 167.001 176.659 169.349 187.886C170.385 192.815 172.575 197.668 171.988 202.666C171.525 206.544 169.439 210.028 167.312 213.319C165.184 216.609 162.932 219.955 162.09 223.764C161.247 227.573 162.131 232.06 165.322 234.369C166.497 235.212 167.919 235.752 168.921 236.775C169.587 237.563 170.145 238.437 170.579 239.374C172.273 242.438 174.572 245.125 177.335 247.273C180.097 249.422 183.267 250.987 186.652 251.873C187.726 252.147 188.833 252.268 189.94 252.232H190.058H190.272C192.807 252.391 195.404 251.714 196.254 249.467C196.383 248.956 196.575 248.464 196.827 248.001C197.066 247.656 197.422 247.411 197.829 247.31C198.646 247.497 199.434 247.795 200.17 248.195C203.709 250.032 207.58 251.139 211.554 251.451C212.218 251.504 212.885 251.516 213.55 251.486C214.933 251.615 216.327 251.416 217.619 250.905C218.861 250.274 219.934 249.354 220.748 248.223C220.927 247.994 221.093 247.752 221.266 247.531C220.353 253.052 218.636 258.409 216.168 263.431C216.168 263.431 212.024 270.344 212.321 277.312C212.161 279.851 212.698 282.385 213.875 284.64C213.875 284.64 213.992 284.336 214.234 283.859C215.422 285.85 219.318 292.217 221.874 294.45C221.998 301.024 221.97 309.257 221.148 310.951C219.767 313.848 215.401 334.455 234.176 348.51L238.507 358.001L220.679 359.266C218.876 359.017 195.563 355.879 195.446 360.448C195.328 365.198 198.968 411.446 211.057 408.314C222.323 405.397 218.606 391.909 218.047 390.098L218.447 389.988L218.005 389.863L227.02 381.312C227.19 380.271 226.941 379.205 226.329 378.346L226.419 378.298L248.191 379.272L253.309 390.402C253.309 390.402 261.992 403.62 254.953 414.743C247.915 425.866 240.634 443.259 239.46 453.808C238.5 462.436 232.117 470.911 229.831 473.704C225.749 475.087 210.089 481.239 216.341 490.551C223.497 501.211 246.734 521.501 256.128 520.802C265.522 520.104 261.757 513.267 261.757 513.267L253.903 505.649C253.903 505.649 252.522 489.417 253.081 484.668C253.385 482.2 251.569 480.424 249.628 479.67C250.367 474.382 252.239 464.358 256.259 458.82C261.888 451.05 279.965 416.858 279.965 416.858C279.965 416.858 285.712 411.757 284.421 396.576C283.903 390.451 283.612 385.072 283.447 380.821L303.907 381.74C303.907 381.74 325.852 379.535 310.945 356.003C296.039 332.471 264.354 309.41 264.354 309.41L264.071 294.844C265.508 295.203 266.351 295.383 266.351 295.383C266.351 295.383 266.226 294.858 266.019 293.918L266.351 293.994C266.351 293.994 261.771 274.16 260.362 258.392L261.654 258.986C275.268 274.755 284.448 261.426 284.448 261.426C284.448 261.426 313.204 220.971 310.386 222.824C310.094 222.969 309.776 223.054 309.451 223.074C309.126 223.094 308.801 223.049 308.493 222.942L310.565 216.333C310.565 216.333 319.055 203.35 306.732 196.05C296.674 190.091 296.937 208.77 297.372 215.828L296.875 215.407C296.875 215.407 287.253 229.924 282.086 238.012C276.919 246.1 272.581 240.777 272.581 240.777L266.054 233.415C267.126 230.465 267.652 227.345 267.608 224.207C267.75 222.017 267.431 219.822 266.671 217.764C265.91 215.706 264.726 213.831 263.194 212.261C258.214 207.18 256.756 202.258 256.604 198.47C256.653 196.507 257.097 194.574 257.91 192.787L291.832 174.813C291.832 174.813 298.988 174.924 308.611 160.089C314.846 150.6 321.709 141.54 329.153 132.969C329.153 132.969 328.953 132.679 328.608 132.202C328.953 131.794 329.153 131.573 329.153 131.573C329.153 131.573 328.76 130.999 328.09 130.114L333.318 124.079C333.153 126.806 333.133 129.541 333.256 132.271L335.964 141.43L337.484 192.428C337.484 192.428 335.84 197.267 346.408 202.168C355.346 206.316 369.507 213.229 373.637 215.268C373.485 215.642 373.396 215.842 373.396 215.842L374.625 215.759L374.805 215.842C395.451 213.989 394.746 234.618 394.746 234.618C394.746 234.618 396.128 276.58 389.821 291.187C383.515 305.794 384.42 323.872 384.42 323.872C384.42 323.872 385.048 320.788 388.564 324.819C388.495 325.171 388.419 325.551 388.336 325.945C386.319 336.059 382.12 357.572 381.339 366.297C380.479 374.247 378.947 382.11 376.759 389.801L374.687 428.396L387.887 429.039L387.742 430.422C387.67 431.123 387.429 431.795 387.039 432.382C386.649 432.968 386.122 433.451 385.504 433.788C380.987 436.242 370.308 444.849 371.164 471.409L370.709 475.681C369.977 482.916 367.785 489.928 364.264 496.289C363.96 496.828 363.691 497.347 363.463 497.844C363.497 497.565 363.624 497.305 363.822 497.105C363.822 497.105 356.963 498.529 358.372 517.076C359.781 535.624 361.895 538.866 364.713 539.094C367.531 539.322 381.291 542.689 380.552 535.852C379.813 529.015 379.17 513.827 380.082 511.511C380.994 509.195 384.738 502.946 381.187 501.439C382.217 497.185 382.716 492.82 382.672 488.443C382.672 488.443 389.58 477.548 394.519 473.49C399.457 469.432 402.117 462.54 403.906 453.67C404.03 453.09 418.46 443.467 416.339 435.475C415.966 434.093 415.697 432.869 415.49 431.763C415.4 431.272 415.324 430.809 415.255 430.38H415.51L418.446 412.759V429.917L420.187 430.145L420.124 431.528L419.385 447.981C419.251 451.185 418.55 454.341 417.313 457.3C414.205 464.662 408.472 481.053 410.033 498.778L409.867 514.581C409.37 514.677 402.2 516.371 403.56 534.283C404.942 552.823 407.076 556.073 409.895 556.301C412.713 556.529 426.472 559.895 425.74 553.058C425.008 546.221 424.359 531.034 425.271 528.718C426.182 526.402 427.826 520.277 424.276 518.77C424.294 516.693 424.801 514.649 425.754 512.804C427.301 510.17 432.468 497.651 436.357 488.021C440.333 478.274 442.543 467.897 442.885 457.376C442.885 457.258 442.885 457.141 442.885 457.023C442.989 453.473 443.75 449.974 445.129 446.702C446.719 443.041 447.977 439.244 448.887 435.358C448.984 434.894 449.06 434.445 449.129 433.975L452.5 434.424L464.008 384.582C464.008 384.582 467.157 357.566 465.617 345.364C465.555 344.859 465.486 344.396 465.403 343.947L466.094 344.009C466.094 344.009 468.442 337.988 467.738 312.251C467.033 286.514 472.435 278.377 472.435 278.377C475.35 269.128 478.568 266.03 480.447 264.994C480.931 264.685 481.484 264.504 482.057 264.468L490.767 274.444L492.37 276.282C492.373 276.246 492.373 276.209 492.37 276.172L493.06 276.981C493.008 276.57 492.989 276.157 493.005 275.743C497.654 278.446 508.395 284.765 514.805 289.3C523.163 295.21 525.456 294.519 532.764 293.904C537.199 293.537 543.195 291.049 547.215 289.154L547.581 288.982C548.663 289.559 549.802 290.023 550.979 290.364C550.979 290.364 562.777 300.367 563.917 282.11C565.057 263.853 549.764 268.263 549.764 268.263ZM243.763 480.88C242.562 480.522 241.404 480.033 240.31 479.421L243.763 480.88ZM225.293 283.251L225.334 285.843L225.155 285.926C225.21 285.014 225.251 284.115 225.293 283.251ZM409.819 514.643V515.652C409.691 515.515 409.62 515.335 409.62 515.148C409.62 514.96 409.691 514.78 409.819 514.643Z" fill="url(#paint0_linear)"/>
<path d="M447.478 210.885H427.446V231.97H447.478V210.885Z" fill="#7FB4F8"/>
<path d="M403.104 454.341C401.343 463.155 398.732 470.006 393.897 474.043C389.062 478.08 382.272 488.906 382.272 488.906C382.154 503.306 378.355 507.681 378.355 507.681L374.438 508.718H364.768C364.768 508.718 363.041 503.879 362.696 501.004C362.578 500.043 363.262 498.432 364.215 496.704C367.672 490.369 369.821 483.403 370.536 476.22L370.985 471.969C370.17 445.582 380.655 437.017 385.055 434.576C385.663 434.237 386.18 433.756 386.561 433.173C386.942 432.59 387.177 431.924 387.245 431.231L388.025 423.688L414.039 424.967C414.039 424.967 413.486 427.262 414.474 432.572C414.674 433.671 414.944 434.894 415.303 436.256C417.375 444.199 403.215 453.76 403.104 454.341Z" fill="#E49D75"/>
<path d="M447.215 436.118C446.323 439.978 445.091 443.751 443.533 447.393C442.178 450.649 441.429 454.126 441.323 457.652C441.323 457.77 441.323 457.887 441.323 458.005C440.987 468.454 438.819 478.764 434.92 488.463C431.1 498.031 426.037 510.481 424.517 513.101C421.989 517.477 423.481 524.853 423.481 524.853L408.837 523.816L409.093 499.158C407.566 481.55 413.189 465.284 416.235 457.936C417.466 454.996 418.168 451.863 418.307 448.679L418.998 432.323L419.212 427.484C419.212 427.484 445.101 423.799 447.284 429.675C447.885 431.231 447.74 433.546 447.215 436.118Z" fill="#E49D75"/>
<path opacity="0.1" d="M414.474 432.572L387.217 431.231L387.997 423.688L414.038 424.967C414.038 424.967 413.465 427.256 414.474 432.572Z" fill="black"/>
<path opacity="0.1" d="M447.215 436.118L418.991 432.323L419.205 427.484C419.205 427.484 445.094 423.799 447.277 429.675C447.885 431.231 447.74 433.546 447.215 436.118Z" fill="black"/>
<path d="M462.046 385.667L450.766 435.212L417.382 430.719V413.665L414.495 431.189L374.432 429.226L376.504 390.858C378.651 383.202 380.153 375.379 380.994 367.472C381.774 358.803 385.877 337.421 387.86 327.376C388.55 324.065 388.937 321.977 388.937 321.977C388.937 321.977 457.556 336.26 462.046 341.444C462.812 342.329 463.317 344.21 463.628 346.705C465.133 358.817 462.046 385.667 462.046 385.667Z" fill="#BDD2E8"/>
<path opacity="0.1" d="M381.919 388.895C381.919 388.895 408.927 374.724 415.51 377.717L381.919 388.895Z" fill="black"/>
<path opacity="0.1" d="M396.652 342.578C396.652 342.578 419.102 359.632 419.792 364.237L396.652 342.578Z" fill="black"/>
<path opacity="0.1" d="M390.554 401.339C390.554 401.339 406.786 400.647 411.967 404.795L390.554 401.339Z" fill="black"/>
<path opacity="0.03" d="M419.793 383.102C419.793 383.102 427.508 408.376 424.165 415.289C420.822 422.202 417.375 413.671 417.375 413.671L419.793 383.102Z" fill="black"/>
<path d="M548.009 288.657C548.009 288.657 546.268 289.631 543.712 290.848C539.768 292.728 533.89 295.203 529.538 295.57C522.368 296.178 520.123 296.869 511.924 290.993C505.631 286.486 495.098 280.202 490.511 277.52L488.515 276.338L488.314 276.22V276.137L492.12 265.671L505.59 258.502L508.933 261.371L518.887 269.909C518.887 269.909 520.441 272.411 522.948 272.238C525.456 272.066 538.836 273.185 538.836 273.185L541.364 273.6L546.689 274.485L548.009 288.657Z" fill="#E49D75"/>
<path opacity="0.1" d="M548.009 288.657C548.009 288.657 546.269 289.631 543.713 290.848C541.012 289.465 537.655 286.873 538.947 282.608C540.114 278.771 540.432 275.778 541.392 273.621L546.717 274.506L548.009 288.657Z" fill="black"/>
<path d="M546.199 269.992C546.199 269.992 561.223 265.671 560.104 283.818C558.985 301.964 547.408 292.03 547.408 292.03C547.408 292.03 537.565 289.438 539.637 282.608C541.709 275.778 541.109 271.637 546.199 269.992Z" fill="#E49D75"/>
<path d="M390.436 211.231L374.783 217.812L374.542 217.916L374.369 217.833L373.395 217.342C369.347 215.324 355.436 208.417 346.684 204.318C336.323 199.479 337.932 194.64 337.932 194.64L336.44 143.947L333.788 134.842C333.788 134.842 331.916 103.983 346.912 96.247C361.908 88.5114 352.21 140.946 352.21 140.946L353.37 151.841C354.12 158.811 355.495 165.699 357.48 172.421C358.128 174.632 358.536 176.905 358.696 179.203C359.159 186.572 362.612 186.082 362.612 186.082C368.068 186.939 373.334 188.73 378.182 191.377C379.982 192.328 381.705 193.419 383.335 194.64L390.436 211.231Z" fill="#E49D75"/>
<path d="M446.158 235.427L432.799 234.044C432.799 234.044 431.766 228.203 433.499 222.5C433.745 221.718 428.742 219.907 435 219C435.401 216.739 439.354 215.738 438.325 214.224C434.415 208.466 461.582 200.398 461.582 200.398C461.252 203.585 461.153 206.792 461.285 209.994C461.363 212.221 461.594 214.441 461.976 216.637C462.798 221.11 464.435 225.32 467.557 227.477C476.088 233.353 446.158 235.427 446.158 235.427Z" fill="#E49D75"/>
<path opacity="0.1" d="M446.158 235.427L432.799 234.044C432.799 234.044 436.736 228.182 438.47 222.479C440.01 224.67 440.542 224.622 442.704 225.057C442.704 225.057 456.187 227.055 461.99 216.637C462.812 221.11 464.449 225.32 467.571 227.477C476.088 233.353 446.158 235.427 446.158 235.427Z" fill="black"/>
<path opacity="0.1" d="M490.538 277.52C490.523 277.931 490.541 278.342 490.594 278.75L488.521 276.338L488.349 276.137L492.155 265.671L505.624 258.502L508.967 261.371C504.181 263.203 490.752 269.017 490.538 277.52Z" fill="black"/>
<path opacity="0.1" d="M390.436 211.231L374.783 217.812H374.369L373.16 217.895C373.16 217.895 373.25 217.695 373.395 217.321C374.7 214.148 380.758 198.656 378.14 191.356C379.941 192.307 381.664 193.398 383.293 194.619L390.436 211.231Z" fill="black"/>
<path fill-rule="evenodd" clip-rule="evenodd" d="M422.355 214.041C419.36 233.327 379.781 226.237 372.85 221.413C370.02 214.366 371.997 192.68 377.402 188.274C385.875 186.359 425.547 193.524 422.355 214.041Z" fill="#0067F2"/>
<path opacity="0.1" d="M463.627 346.685C457.535 346.138 396.584 340.497 390.899 331.517C390 330.054 388.984 328.667 387.859 327.37C388.55 324.058 388.937 321.97 388.937 321.97C388.937 321.97 457.556 336.253 462.045 341.438C462.812 342.309 463.316 344.182 463.627 346.685Z" fill="black"/>
<path d="M442.705 225.748C442.705 225.748 456.333 227.767 462.094 217.169C462.094 217.169 471.716 225.078 477.47 225.755C483.224 226.433 509.935 260.085 509.935 260.085C509.935 260.085 488.522 266.998 489.903 278.059L479.77 266.307C479.77 266.307 474.707 266.072 470.335 280.133C470.335 280.133 465.036 288.193 465.727 313.772C466.418 339.35 464.118 345.343 464.118 345.343C464.118 345.343 396.881 339.585 390.899 330.135C384.917 320.685 383.991 325.296 383.991 325.296C383.991 325.296 383.066 307.322 389.282 292.804C395.499 278.287 394.118 236.581 394.118 236.581C394.118 236.581 394.808 216.07 374.549 217.916C374.549 217.916 383.066 198.096 379.156 190.492C379.156 190.492 390.809 193.658 399.112 193.755C404.208 193.795 409.23 194.976 413.811 197.211C416.304 198.435 418.605 199.977 419.91 201.815C423.82 207.346 430.271 204.816 430.271 204.816C431.897 209.876 433.906 214.806 436.281 219.561C436.55 220.066 436.82 220.564 437.096 221.041C437.497 221.732 437.911 222.423 438.325 222.99C439.983 225.361 440.453 225.299 442.705 225.748Z" fill="#0067F2"/>
<path opacity="0.1" d="M461.285 211.572C460.551 212.616 459.733 213.598 458.84 214.51C456.594 216.817 453.908 218.651 450.942 219.902C447.977 221.153 444.79 221.798 441.571 221.797C440.739 221.797 435.897 219.405 435.068 219.322C435.469 217.061 439.375 217.317 438.346 215.803C434.436 210.044 461.603 201.977 461.603 201.977C461.266 205.163 461.16 208.37 461.285 211.572Z" fill="black"/>
<path d="M465.727 195.331C465.727 200.117 464.309 204.795 461.653 208.773C458.996 212.752 455.221 215.854 450.803 217.685C446.385 219.516 441.524 219.995 436.835 219.062C432.145 218.128 427.837 215.824 424.456 212.44C421.075 209.056 418.772 204.745 417.84 200.051C416.907 195.358 417.385 190.493 419.215 186.072C421.045 181.651 424.144 177.872 428.12 175.213C432.095 172.555 436.77 171.136 441.551 171.136C444.729 171.124 447.878 171.742 450.817 172.953C453.756 174.165 456.425 175.947 458.673 178.196C460.92 180.445 462.7 183.117 463.911 186.058C465.122 188.999 465.739 192.15 465.727 195.331Z" fill="#E49D75"/>
<path opacity="0.05" d="M477.705 250.635L478.202 266.825C478.202 266.825 485.421 261.005 485.649 255.474C485.877 249.944 477.705 250.635 477.705 250.635Z" fill="black"/>
<path opacity="0.1" d="M419.447 266.825C419.447 266.825 438.443 292.922 449.495 295.57C460.547 298.217 423.592 275.287 419.447 266.825Z" fill="black"/>
<path opacity="0.1" d="M439.597 269.542C439.597 269.542 450.186 281.516 457.784 283.009L439.597 269.542Z" fill="black"/>
<path opacity="0.1" d="M402.296 299.718C402.296 299.718 421.637 318.728 432.689 319.883L402.296 299.718Z" fill="black"/>
<path opacity="0.1" d="M465.727 195.331C465.73 201.656 463.25 207.729 458.82 212.24L456.167 210.588C455.141 210.053 454.256 209.284 453.584 208.341C452.707 206.876 452.962 205.037 453.031 203.329C453.176 199.714 452.182 195.801 449.356 193.541C444.777 189.87 437.434 191.902 432.778 188.301C431.657 187.348 430.67 186.248 429.843 185.031L425.477 179.175C425.215 178.83 424.897 178.484 424.559 178.076C427.957 174.731 432.269 172.467 436.95 171.567C441.631 170.667 446.474 171.172 450.869 173.019C455.264 174.866 459.016 177.972 461.652 181.947C464.288 185.922 465.692 190.588 465.686 195.359L465.727 195.331Z" fill="black"/>
<path d="M426.983 164.347C429.145 162.695 431.784 161.824 434.215 160.607C436.647 159.39 438.795 157.842 441.226 156.805C443.658 155.768 446.469 155.16 448.99 156.024C454.399 157.883 456.443 165.446 462.004 166.773C462.943 166.995 463.91 167.015 464.857 167.161C466.663 167.503 468.376 168.226 469.882 169.281C471.388 170.335 472.654 171.698 473.595 173.279C475.451 176.468 476.406 180.103 476.358 183.793C476.434 185.842 476.137 187.887 475.48 189.828C473.836 194.343 469.713 197.433 466.929 201.339C464.294 205.076 462.895 209.546 462.93 214.121L456.188 209.924C455.16 209.392 454.275 208.622 453.604 207.678C452.727 206.212 452.983 204.373 453.052 202.666C453.197 199.05 452.202 195.138 449.384 192.877C444.798 189.206 437.455 191.239 432.806 187.637C431.685 186.684 430.698 185.584 429.871 184.367L425.505 178.512C424.559 177.24 422.742 175.657 422.328 174.108C421.409 170.776 424.552 166.22 426.983 164.347Z" fill="#362133"/>
<path opacity="0.1" d="M456.941 209.143C455.913 208.611 455.028 207.841 454.358 206.897C453.48 205.431 453.736 203.592 453.805 201.885C453.95 198.269 452.955 194.356 450.13 192.096C445.551 188.425 438.208 190.457 433.552 186.856C432.431 185.903 431.444 184.803 430.617 183.586L426.251 177.731C425.298 176.459 423.488 174.875 423.074 173.327C422.321 170.659 424.227 167.181 426.265 164.955C423.979 167.071 421.471 171.087 422.321 174.08C422.763 175.629 424.552 177.212 425.498 178.484L429.864 184.339C430.691 185.557 431.678 186.656 432.799 187.609C437.434 191.211 444.777 189.178 449.377 192.849C452.196 195.11 453.19 199.023 453.045 202.638C452.976 204.346 452.72 206.185 453.598 207.65C454.268 208.594 455.154 209.364 456.181 209.897L462.923 214.093C462.923 213.692 462.923 213.291 462.964 212.897L456.941 209.143Z" fill="black"/>
<path d="M298.802 220.446C298.802 220.446 295.694 190.955 307.782 198.214C319.87 205.472 311.546 218.372 311.546 218.372L308.707 227.476L298.802 220.446Z" fill="#EDC6B0"/>
<path d="M318.143 126.201L325.05 119.412C325.05 119.412 338.292 81.2734 351.416 91.0691C364.54 100.865 334.783 125.634 334.783 125.634L326.894 134.849L318.143 126.201Z" fill="#EDC6B0"/>
<path d="M217.059 277.029L216.714 284.861C216.714 284.861 223.048 295.922 225.694 296.731C228.339 297.54 228.111 273.338 228.111 273.338L217.059 277.029Z" fill="#4C96F5"/>
<path opacity="0.1" d="M217.059 277.029L216.714 284.861C216.714 284.861 223.048 295.922 225.694 296.731C228.339 297.54 228.111 273.338 228.111 273.338L217.059 277.029Z" fill="black"/>
<path d="M227.647 268.429L228.117 297.298H260.23L257.812 280.479L227.647 268.429Z" fill="#EDC6B0"/>
<path d="M235.136 340.504L236.634 349.719L255.402 391.432C255.402 391.432 263.919 404.567 257.011 415.628C250.104 426.689 242.969 443.971 241.815 454.451C240.661 464.931 231.571 475.19 231.571 475.19L251.375 483.603C251.375 483.603 252.756 467.13 258.282 459.408C263.808 451.686 281.533 417.702 281.533 417.702C281.533 417.702 287.176 412.628 285.912 397.536C284.648 382.445 284.759 371.841 284.759 371.841L282.804 347.763L235.136 340.504Z" fill="#2C425F"/>
<path opacity="0.1" d="M235.136 340.504L236.634 349.719L255.402 391.432C255.402 391.432 263.919 404.567 257.011 415.628C250.104 426.689 242.969 443.971 241.815 454.451C240.661 464.931 231.571 475.19 231.571 475.19L251.375 483.603C251.375 483.603 252.756 467.13 258.282 459.408C263.808 451.686 281.533 417.702 281.533 417.702C281.533 417.702 287.176 412.628 285.912 397.536C284.648 382.445 284.759 371.841 284.759 371.841L282.804 347.763L235.136 340.504Z" fill="black"/>
<path d="M246.644 285.034L229.852 286.894C228.351 287.06 226.968 287.783 225.975 288.921C224.982 290.06 224.453 291.529 224.491 293.039C224.671 299.759 224.788 310.446 223.849 312.396C222.468 315.279 218.213 335.79 236.628 349.726L261.612 357.676L221.549 360.559L222.82 382.798L229.037 379.341L305.019 382.798C305.019 382.798 326.549 380.607 311.926 357.22C297.303 333.833 266.226 310.903 266.226 310.903L265.881 292.694L263.574 287.398L246.644 285.034Z" fill="#002A60"/>
<path opacity="0.1" d="M267.483 357.323C270.207 356.134 273.146 355.519 276.118 355.519C279.089 355.519 282.029 356.134 284.752 357.323H267.483Z" fill="black"/>
<path d="M223.51 360.434C223.51 360.434 198.761 356.867 198.643 361.589C198.526 366.311 202.097 412.282 213.957 409.171C225.817 406.06 220.747 390.852 220.747 390.852L229.616 382.328C229.616 382.328 230.535 377.606 224.664 378.063L223.51 360.434Z" fill="#C4747B"/>
<path d="M264.492 231.507L274.273 242.685C274.273 242.685 278.535 247.988 283.598 239.92C288.662 231.853 293.5 216.5 298.104 217.453C302.708 218.406 309.191 219.158 311.346 224.829C313.5 230.5 289 260.783 285.906 263.203C282.811 265.623 276.926 276.448 263.567 260.783L259.657 258.938L264.492 231.507Z" fill="#0058EF"/>
<path d="M234.569 186.082C245.823 186.082 254.946 176.951 254.946 165.688C254.946 154.425 245.823 145.295 234.569 145.295C223.315 145.295 214.192 154.425 214.192 165.688C214.192 176.951 223.315 186.082 234.569 186.082Z" fill="#EDC6B0"/>
<path opacity="0.1" d="M234.562 176.666C234.562 176.666 217.052 184.962 219.124 199.479C221.196 213.996 221.542 232.316 221.542 232.316C221.542 232.316 229.492 244.068 218.951 266.535C218.951 266.535 212.217 277.942 216.706 286.237C216.706 286.237 221.687 273.102 234.562 282.781C247.438 292.459 268.167 296.952 268.167 296.952C268.167 296.952 257.46 249.944 264.023 243.377C264.023 243.377 275.42 226.44 265.059 215.724C254.697 205.009 259.878 194.985 259.878 194.985L293.151 177.129C293.151 177.129 300.169 177.24 309.612 162.494C315.725 153.071 322.456 144.065 329.761 135.534C329.761 135.534 322.619 124.818 315.946 124.01C315.946 124.01 313.293 126.775 311.456 134.269C310.475 138.244 303.81 144.887 297.779 150.245C293.497 154.047 289.366 157.994 285.242 161.997C282.189 164.935 275.392 169.138 260.569 171.516C236.172 175.408 234.562 176.666 234.562 176.666Z" fill="black"/>
<path d="M234.562 175.283C234.562 175.283 217.052 183.579 219.124 198.096C221.196 212.614 221.583 202.866 221.542 230.933C221.5 259 221.504 256.5 218.951 265.152C216.399 273.805 212.217 276.559 216.706 284.854C216.706 284.854 221.687 271.72 234.562 281.398C247.438 291.076 268.167 295.57 268.167 295.57C268.167 295.57 278 281.398 265.059 214.342C252.117 147.286 259.878 193.603 259.878 193.603L293.151 175.746C293.151 175.746 300.169 175.857 309.612 161.112C315.725 151.689 329.5 138 329.761 134.151C330.022 130.302 322.28 121.254 315.946 122.627C309.612 124 289 159 285.242 160.614C281.484 162.228 234.562 175.283 234.562 175.283Z" fill="#0067F2"/>
<path opacity="0.1" d="M239.142 144.362C238.894 143.326 238.379 142.372 237.65 141.596C234.528 137.677 231.136 133.653 226.487 131.794C223.402 130.64 220.028 130.505 216.86 131.408C213.692 132.311 210.896 134.205 208.88 136.813C207.209 139.066 206.214 141.748 204.77 144.161C202.104 148.627 197.98 152.07 193.546 154.793C190.872 156.432 188.054 157.849 185.533 159.708C176.367 166.462 172.133 178.947 174.44 190.126C175.455 195.02 177.603 199.845 177.023 204.816C176.574 208.673 174.523 212.13 172.443 215.407C170.364 218.683 168.147 222.002 167.318 225.776C166.489 229.551 167.359 234.023 170.489 236.311C171.642 237.155 173.031 237.694 174.018 238.703C174.672 239.489 175.218 240.359 175.642 241.289C177.287 244.327 179.534 246.997 182.245 249.137C184.957 251.276 188.076 252.84 191.411 253.732C194.381 254.513 198.367 254.23 199.452 251.354C199.576 250.846 199.764 250.356 200.011 249.896C200.992 248.513 203.154 249.287 204.674 250.082C208.133 251.892 211.923 252.981 215.815 253.283C217.359 253.487 218.929 253.299 220.381 252.737C221.607 252.114 222.663 251.2 223.455 250.075C227.088 245.34 228.131 239.153 228.753 233.214C229.161 229.35 229.444 225.417 228.705 221.601C227.53 215.476 223.807 209.752 224.36 203.544C224.947 196.907 230.328 191.481 231.15 184.879C231.568 181.422 230.705 177.932 228.725 175.069C227.995 174.185 227.375 173.215 226.881 172.179C226.645 171.656 226.572 171.074 226.67 170.508C226.769 169.942 227.035 169.419 227.434 169.006C227.871 168.698 228.357 168.464 228.87 168.315C233.312 166.608 235.681 162.156 235.999 157.6C236.123 155.872 235.999 154.282 236.476 152.595C237.235 149.989 239.536 147.141 239.142 144.362Z" fill="black"/>
<path d="M237.76 144.362C237.512 143.326 236.997 142.372 236.268 141.596C233.146 137.677 229.754 133.653 225.105 131.794C222.02 130.64 218.646 130.505 215.478 131.408C212.31 132.311 209.514 134.205 207.498 136.813C205.827 139.066 204.832 141.748 203.388 144.161C200.722 148.627 196.598 152.07 192.164 154.793C189.491 156.432 186.672 157.849 184.151 159.708C174.985 166.462 170.751 178.947 173.058 190.126C174.073 195.02 176.221 199.845 175.641 204.816C175.192 208.673 173.141 212.13 171.062 215.407C168.982 218.683 166.765 222.002 165.936 225.776C165.107 229.551 165.978 234.023 169.107 236.311C170.26 237.155 171.649 237.694 172.636 238.703C173.29 239.489 173.836 240.359 174.26 241.289C175.905 244.327 178.152 246.997 180.864 249.137C183.575 251.276 186.694 252.84 190.029 253.732C193 254.513 196.985 254.23 198.07 251.354C198.194 250.846 198.382 250.356 198.629 249.896C199.61 248.513 201.772 249.287 203.292 250.082C206.751 251.892 210.542 252.981 214.433 253.283C215.977 253.487 217.547 253.299 218.999 252.737C220.225 252.114 221.281 251.2 222.073 250.075C225.706 245.34 226.749 239.153 227.371 233.214C227.779 229.35 228.062 225.417 227.323 221.601C226.149 215.476 222.425 209.752 222.978 203.544C223.565 196.907 228.946 191.481 229.768 184.879C230.186 181.422 229.323 177.932 227.344 175.069C226.613 174.185 225.994 173.215 225.499 172.179C225.263 171.656 225.19 171.074 225.289 170.508C225.387 169.942 225.653 169.419 226.052 169.006C226.489 168.698 226.975 168.464 227.489 168.315C231.93 166.608 234.299 162.156 234.617 157.6C234.741 155.872 234.617 154.282 235.094 152.595C235.853 149.989 238.154 147.141 237.76 144.362Z" fill="black"/>
<g opacity="0.1">
<path opacity="0.1" d="M196.571 249.861C196.324 250.322 196.134 250.812 196.004 251.319C195.362 253.034 193.683 253.822 191.812 254.016C194.416 254.278 197.199 253.649 198.077 251.319C198.206 250.812 198.396 250.322 198.643 249.861C198.817 249.607 199.055 249.404 199.334 249.273C198.284 248.969 197.206 248.983 196.571 249.861Z" fill="black"/>
<path opacity="0.1" d="M237.795 144.355C237.553 143.316 237.038 142.361 236.303 141.589C233.18 137.67 229.789 133.646 225.14 131.787C223.12 130.997 220.948 130.671 218.785 130.833C220.254 130.925 221.699 131.247 223.068 131.787C227.717 133.646 231.108 137.67 234.23 141.589C234.966 142.361 235.481 143.316 235.722 144.355C236.116 147.12 233.823 149.989 233.063 152.546C232.559 154.233 232.704 155.816 232.586 157.551C232.262 162.1 229.899 166.538 225.451 168.267C224.937 168.416 224.452 168.65 224.014 168.958C223.615 169.372 223.35 169.897 223.252 170.464C223.155 171.031 223.23 171.614 223.469 172.138C223.961 173.173 224.578 174.143 225.306 175.028C227.288 177.887 228.153 181.375 227.737 184.83C226.909 191.446 221.521 196.866 220.94 203.495C220.388 209.717 224.118 215.427 225.285 221.545C226.017 225.361 225.741 229.295 225.334 233.159C224.712 239.097 223.676 245.291 220.036 250.02C219.246 251.144 218.193 252.058 216.969 252.681C216.253 252.995 215.489 253.185 214.71 253.241C216.178 253.416 217.666 253.224 219.041 252.681C220.267 252.075 221.327 251.178 222.129 250.068C225.769 245.34 226.805 239.146 227.427 233.207C227.834 229.343 228.117 225.41 227.378 221.594C226.211 215.476 222.481 209.745 223.033 203.544C223.627 196.9 229.001 191.48 229.83 184.879C230.246 181.423 229.381 177.936 227.399 175.076C226.671 174.192 226.053 173.221 225.562 172.186C225.323 171.663 225.248 171.079 225.345 170.512C225.443 169.945 225.708 169.42 226.107 169.006C226.545 168.698 227.03 168.464 227.544 168.315C231.992 166.601 234.355 162.149 234.679 157.6C234.797 155.865 234.679 154.282 235.156 152.595C235.895 149.989 238.188 147.14 237.795 144.355Z" fill="black"/>
</g>
<path d="M235 165C238.314 165 241 162.761 241 160C241 157.239 238.314 155 235 155C231.686 155 229 157.239 229 160C229 162.761 231.686 165 235 165Z" fill="#EDC6B0"/>
<path fill-rule="evenodd" clip-rule="evenodd" d="M467.437 231.588C482.471 219.143 507.386 250.702 509.372 258.91C506.816 266.06 490.951 280.977 483.984 280.689C476.374 276.502 451.439 244.824 467.437 231.588Z" fill="#0067F2"/>
</g>
</g>
<path fill-rule="evenodd" clip-rule="evenodd" d="M335.567 50.1737C336.443 49.7682 337.509 50.0969 337.947 50.9079L342.847 59.981C343.285 60.792 342.93 61.7782 342.054 62.1838C341.178 62.5893 340.113 62.2605 339.675 61.4495L334.774 52.3765C334.336 51.5654 334.691 50.5792 335.567 50.1737ZM367.111 51.6549C367.971 52.0891 368.288 53.0864 367.819 53.8825L363.03 62.009C362.561 62.805 361.484 63.0984 360.624 62.6641C359.764 62.2299 359.447 61.2326 359.916 60.4366L364.705 52.3101C365.174 51.514 366.251 51.2207 367.111 51.6549ZM314.738 66.9222C315.177 66.1112 316.242 65.7824 317.118 66.188L326.919 70.7245C327.795 71.13 328.15 72.1162 327.712 72.9272C327.274 73.7383 326.208 74.067 325.332 73.6615L315.532 69.125C314.656 68.7195 314.3 67.7332 314.738 66.9222ZM387.954 72.0283C388.174 72.9118 387.579 73.7934 386.625 73.9973L376.027 76.2614C375.072 76.4653 374.12 75.9144 373.9 75.0308C373.68 74.1473 374.275 73.2657 375.229 73.0618L385.827 70.7977C386.782 70.5938 387.734 71.1448 387.954 72.0283ZM375.778 91.0872C376.088 90.227 377.092 89.7621 378.022 90.0488L387.63 93.0138C388.559 93.3006 389.061 94.2304 388.752 95.0906C388.442 95.9508 387.437 96.4157 386.508 96.129L376.9 93.164C375.971 92.8773 375.469 91.9475 375.778 91.0872ZM320.9 91.611C320.988 92.5141 320.269 93.3127 319.294 93.3948L310.934 94.0983C309.959 94.1804 309.096 93.5149 309.007 92.6119C308.919 91.7088 309.638 90.9102 310.613 90.8281L318.973 90.1246C319.948 90.0425 320.811 90.708 320.9 91.611ZM375.035 107.632C375.8 107.065 376.916 107.18 377.527 107.888L383.961 115.332C384.572 116.04 384.448 117.074 383.684 117.64C382.919 118.207 381.803 118.092 381.191 117.384L374.758 109.939C374.146 109.231 374.27 108.198 375.035 107.632Z" fill="#4C96F5"/>
<defs>
<linearGradient id="paint0_linear" x1="362.903" y1="557.358" x2="362.903" y2="86.638" gradientUnits="userSpaceOnUse">
<stop stop-color="#808080" stop-opacity="0.25"/>
<stop offset="0.54" stop-color="#808080" stop-opacity="0.12"/>
<stop offset="1" stop-color="#808080" stop-opacity="0.1"/>
</linearGradient>
<clipPath id="clip0">
<rect width="404.627" height="471.798" fill="white" transform="translate(159.986 86.5787)"/>
</clipPath>
</defs>
</svg>
